<svg width="12" height="12" viewBox="0 0 12 12" fill="none" xmlns="http://www.w3.org/2000/svg">
<path d="M8.65 1.52499C10.075 1.52499 11.25 2.82499 11.25 4.39999C11.25 6.09999 9.775 7.14999 8.375 8.39999C6.975 9.64999 6.25 10.325 6 10.475C5.725 10.3 4.825 9.47499 3.625 8.39999C2.2 7.14999 0.75 6.09999 0.75 4.39999C0.75 2.82499 1.925 1.52499 3.35 1.52499C4.4 1.52499 4.975 2.02499 5.375 2.59999C5.85 3.24999 5.925 3.57499 6 3.57499C6.075 3.57499 6.15 3.24999 6.625 2.59999C7.025 2.02499 7.6 1.52499 8.65 1.52499ZM8.65 0.774994C7.525 0.774994 6.675 1.22499 6 2.17499C5.325 1.24999 4.475 0.799994 3.35 0.799994C1.5 0.774994 0 2.39999 0 4.39999C0 6.22499 1.35 7.39999 2.65 8.52499C2.8 8.64999 2.975 8.79999 3.125 8.94999L3.7 9.44999C4.8 10.425 5.35 10.925 5.6 11.075C5.725 11.15 5.875 11.2 6 11.2C6.15 11.2 6.275 11.15 6.4 11.075C6.65 10.925 7.1 10.525 8.35 9.37499L8.85 8.92499C9.025 8.77499 9.175 8.62499 9.35 8.49999C10.675 7.39999 12 6.24999 12 4.39999C12 2.39999 10.5 0.774994 8.65 0.774994Z" fill="#262626"/>
</svg>
